<?xml version="1.0" encoding="UTF-8" standalone="no"?>
<svg width="183px" height="58px" viewBox="0 0 183 58" version="1.1" xmlns="http://www.w3.org/2000/svg" xmlns:xlink="http://www.w3.org/1999/xlink">
    <!-- Generator: Sketch 39.1 (31720) - http://www.bohemiancoding.com/sketch -->
    <title>logo copy</title>
    <desc>Created with Sketch.</desc>
    <defs></defs>
    <g id="Page-1" stroke="none" stroke-width="1" fill="none" fill-rule="evenodd">
        <g id="Desktop-Portrait" transform="translate(-408.000000, -19.000000)">
            <g id="logo-copy" transform="translate(408.000000, 19.000000)">
                <path d="M11.5,41 L34.5217285,41" id="Line" stroke="#FFFFFF" stroke-width="2" stroke-linecap="square"></path>
                <path d="M144.5,41 L167.521729,41" id="Line" stroke="#FFFFFF" stroke-width="2" stroke-linecap="square"></path>
                <path d="M18.795,25.742 C18.795,26.556 18.425,27 17.685,27 L13.541,27 C12.838,27 12.431,26.63 12.431,25.89 L12.431,22.671 C12.431,21.931 12.061,21.561 11.321,21.561 L8.139,21.561 C7.436,21.561 7.029,21.931 7.029,22.671 L7.029,25.89 C7.029,26.63 6.659,27 5.919,27 L1.775,27 C1.072,27 0.665,26.556 0.665,25.742 L0.665,10.054 C0.665,5.392 1.405,0.434 9.73,0.434 C18.055,0.434 18.795,5.392 18.795,10.054 L18.795,25.742 Z M12.431,10.054 C12.431,8.278 12.172,7.39 9.73,7.39 C7.288,7.39 7.029,8.278 7.029,10.054 L7.029,14.087 C7.029,14.79 7.436,15.197 8.139,15.197 L11.321,15.197 C12.061,15.16 12.431,14.79 12.431,14.05 L12.431,10.054 Z M23.198,1.1 C22.495,1.1 22.088,1.47 22.088,2.21 L22.088,18.675 C22.088,21.117 22.606,27.666 31.375,27.666 C40.144,27.666 40.662,21.117 40.662,18.675 L40.662,2.21 C40.662,1.47 40.292,1.1 39.552,1.1 L35.408,1.1 C34.705,1.1 34.298,1.47 34.298,2.21 L34.298,16.714 C34.298,19.563 34.113,21.302 31.375,21.302 C28.637,21.302 28.452,19.563 28.452,16.714 L28.452,2.21 C28.452,1.47 28.082,1.1 27.342,1.1 L23.198,1.1 Z M50.06,8.574 C50.06,7.834 49.69,7.464 48.95,7.464 L43.77,7.464 C43.067,7.464 42.66,7.057 42.66,6.354 L42.66,2.21 C42.66,1.47 43.067,1.1 43.77,1.1 L62.714,1.1 C63.454,1.1 63.824,1.47 63.824,2.21 L63.824,6.354 C63.824,7.057 63.454,7.464 62.714,7.464 L57.534,7.464 C56.831,7.464 56.424,7.834 56.424,8.574 L56.424,25.89 C56.424,26.593 56.054,27 55.314,27 L51.17,27 C50.467,27 50.06,26.593 50.06,25.89 L50.06,8.574 Z M71.298,1.1 C72.001,1.1 72.408,1.507 72.408,2.21 L72.408,11.46 C72.408,12.163 72.815,12.57 73.518,12.57 L77.07,12.57 C77.81,12.57 78.18,12.163 78.18,11.46 L78.18,2.21 C78.18,1.507 78.587,1.1 79.29,1.1 L83.434,1.1 C84.174,1.1 84.544,1.47 84.544,2.21 L84.544,25.89 C84.544,26.593 84.174,27 83.434,27 L79.29,27 C78.587,27 78.18,26.593 78.18,25.89 L78.18,20.044 C78.18,19.304 77.81,18.934 77.07,18.934 L73.518,18.934 C72.815,18.934 72.408,19.304 72.408,20.044 L72.408,25.89 C72.408,26.593 72.038,27 71.298,27 L67.154,27 C66.451,27 66.044,26.593 66.044,25.89 L66.044,2.21 C66.044,1.47 66.414,1.1 67.154,1.1 L71.298,1.1 Z M104.894,1.1 C105.634,1.1 106.004,1.47 106.004,2.21 L106.004,6.354 C106.004,7.057 105.634,7.464 104.894,7.464 L95.94,7.464 C95.237,7.464 94.83,7.834 94.83,8.574 L94.83,9.758 C94.83,10.461 95.237,10.868 95.94,10.868 L101.675,10.868 C102.415,10.868 102.785,11.238 102.785,11.978 L102.785,16.122 C102.785,16.825 102.415,17.232 101.675,17.232 L95.94,17.232 C95.237,17.232 94.83,17.602 94.83,18.342 L94.83,19.526 C94.83,20.229 95.237,20.636 95.94,20.636 L104.894,20.636 C105.634,20.636 106.004,21.006 106.004,21.746 L106.004,25.89 C106.004,26.63 105.634,27 104.894,27 L89.354,27 C88.651,27 88.244,26.593 88.244,25.89 L88.244,2.21 C88.244,1.47 88.651,1.1 89.354,1.1 L104.894,1.1 Z M115.402,1.1 C116.031,1.1 116.438,1.359 116.697,1.951 L121.729,14.272 C121.877,14.605 122.173,14.531 122.173,14.161 L122.173,2.21 C122.173,1.47 122.58,1.1 123.283,1.1 L127.427,1.1 C128.167,1.1 128.537,1.47 128.537,2.21 L128.537,25.89 C128.537,26.593 128.167,27 127.427,27 L121.988,27 C121.359,27 120.952,26.741 120.693,26.149 L115.661,13.828 C115.513,13.495 115.217,13.569 115.217,13.939 L115.217,25.89 C115.217,26.593 114.847,27 114.107,27 L109.963,27 C109.26,27 108.853,26.593 108.853,25.89 L108.853,2.21 C108.853,1.47 109.26,1.1 109.963,1.1 L115.402,1.1 Z M138.157,8.574 C138.157,7.834 137.787,7.464 137.047,7.464 L131.867,7.464 C131.164,7.464 130.757,7.057 130.757,6.354 L130.757,2.21 C130.757,1.47 131.164,1.1 131.867,1.1 L150.811,1.1 C151.551,1.1 151.921,1.47 151.921,2.21 L151.921,6.354 C151.921,7.057 151.551,7.464 150.811,7.464 L145.631,7.464 C144.928,7.464 144.521,7.834 144.521,8.574 L144.521,25.89 C144.521,26.593 144.151,27 143.411,27 L139.267,27 C138.564,27 138.157,26.593 138.157,25.89 L138.157,8.574 Z M159.321,1.1 C160.061,1.1 160.431,1.47 160.431,2.21 L160.431,25.89 C160.431,26.593 160.061,27 159.321,27 L155.251,27 C154.548,27 154.141,26.593 154.141,25.89 L154.141,2.21 C154.141,1.47 154.548,1.1 155.251,1.1 L159.321,1.1 Z M163.761,18.675 C163.761,21.117 164.279,27.666 173.048,27.666 C180.929,27.666 182.15,22.375 182.298,19.563 C182.335,19.008 182.002,18.601 181.484,18.49 L177.303,17.565 C176.563,17.38 175.971,17.861 175.86,18.638 C175.638,20.34 175.083,21.302 173.048,21.302 C170.31,21.302 170.125,19.563 170.125,16.714 L170.125,11.386 C170.125,8.537 170.31,6.798 173.048,6.798 C175.046,6.798 175.712,7.76 175.897,9.388 C176.008,10.165 176.6,10.683 177.377,10.535 L181.484,9.61 C182.002,9.499 182.335,9.092 182.298,8.574 C182.15,5.725 180.929,0.434 173.048,0.434 C164.279,0.434 163.761,6.983 163.761,9.425 L163.761,18.675 Z" id="AUTHENTIC" fill="#FFFFFF"></path>
                <path d="M45.641,54 L53.051,41.13 C56.6,44.991 64.478,45.654 69.002,37.776 C77.582,22.839 56.288,13.05 48.254,26.973 C46.616,29.82 46.343,32.823 46.343,32.823 L49.112,33.252 C49.112,33.252 49.502,31.068 50.945,28.494 C56.99,17.847 72.863,24.165 65.687,36.567 C62.489,42.144 56.717,42.378 54.104,39.375 L61.397,26.7 L57.341,26.7 L41.546,54 L45.641,54 Z M75.398,30.093 C75.398,31.419 76.412,32.433 77.738,32.433 C79.064,32.433 80.117,31.419 80.117,30.093 C80.117,28.767 79.064,27.714 77.738,27.714 C76.412,27.714 75.398,28.767 75.398,30.093 L75.398,30.093 Z M76.568,45.81 C73.643,49.203 70.796,51.894 69.002,51.894 C68.105,51.894 67.598,51.27 68.534,49.671 L77.231,34.5 L73.175,34.5 L65.024,48.618 C63.308,51.621 64.517,54.39 67.793,54.39 C71.147,54.39 75.008,50.802 78.362,46.902 C78.089,46.356 77.387,45.732 76.841,45.498 L76.568,45.81 Z M95.288,45.81 C90.218,52.05 86.708,53.337 87.254,49.671 L87.917,45.303 L97.355,34.5 L94.352,34.5 L88.541,41.169 L88.931,38.712 C89.438,35.514 88.97,34.11 87.176,34.11 C85.655,34.11 84.29,35.826 83.432,37.152 C81.677,39.492 78.986,42.963 76.841,45.498 C77.192,46.005 77.777,46.512 78.362,46.902 C80.624,44.328 83.705,40.194 85.187,38.244 L84.29,44.679 L75.905,53.961 L78.635,53.961 L83.744,48.462 L83.744,48.618 C83.276,52.05 83.939,54.39 87.215,54.39 C90.374,54.39 93.728,50.802 97.082,46.902 C96.809,46.356 96.107,45.732 95.561,45.498 L95.288,45.81 Z M109.718,41.676 L110.303,40.662 C112.487,36.918 110.381,34.11 107.066,34.11 C103.79,34.11 101.177,35.826 99.461,38.79 L95.21,46.083 C92.675,50.412 94.859,54.39 99.656,54.39 C104.258,54.39 108.821,50.802 112.175,46.902 C111.902,46.356 111.2,45.732 110.654,45.498 L110.381,45.81 C107.456,49.203 103.712,51.894 100.865,51.894 C98.369,51.894 96.887,50.334 98.759,47.058 L99.149,46.356 C101.762,47.448 106.676,46.941 109.718,41.676 L109.718,41.676 Z M102.932,39.804 C105.272,35.787 109.406,36.45 106.988,40.662 L106.403,41.676 C104.453,44.991 101.84,44.913 100.319,44.367 L102.932,39.804 Z M120.404,45.81 C117.479,49.203 114.632,51.894 112.838,51.894 C111.941,51.894 111.434,51.27 112.37,49.671 L126.02,25.92 L121.964,25.92 L108.86,48.618 C107.144,51.621 108.353,54.39 111.629,54.39 C114.983,54.39 118.844,50.802 122.198,46.902 C121.925,46.356 121.223,45.732 120.677,45.498 L120.404,45.81 Z M123.368,54.39 C123.758,54.39 124.109,54.351 124.499,54.312 C124.538,54.312 124.577,54.273 124.616,54.273 C128.75,53.727 132.845,50.451 135.887,46.902 C135.653,46.278 134.951,45.654 134.366,45.498 L134.093,45.81 C132.611,47.565 130.817,49.125 129.218,50.217 C130.505,46.356 130.232,40.428 132.728,35.241 L129.686,33.603 C128.009,35.904 124.343,41.208 120.677,45.498 C121.028,46.005 121.613,46.512 122.198,46.902 C124.499,44.25 126.527,41.403 127.97,39.492 C126.371,43.704 127.229,51.27 123.368,51.27 C122.003,51.27 121.457,49.788 121.457,49.788 L118.922,51.114 C118.922,51.114 119.663,54.39 123.368,54.39 L123.368,54.39 Z" id="Pixels-Copy-2" stroke="#2F2F2F" stroke-width="6" fill="#FFFFFF"></path>
                <path d="M45.641,54 L53.051,41.13 C56.6,44.991 64.478,45.654 69.002,37.776 C77.582,22.839 56.288,13.05 48.254,26.973 C46.616,29.82 46.343,32.823 46.343,32.823 L49.112,33.252 C49.112,33.252 49.502,31.068 50.945,28.494 C56.99,17.847 72.863,24.165 65.687,36.567 C62.489,42.144 56.717,42.378 54.104,39.375 L61.397,26.7 L57.341,26.7 L41.546,54 L45.641,54 Z M120.677,45.498 L120.404,45.81 C117.479,49.203 114.632,51.894 112.838,51.894 C111.941,51.894 111.434,51.27 112.37,49.671 L126.02,25.92 L121.964,25.92 L110.659796,45.5004961 C110.657862,45.4996592 110.65593,45.4988272 110.654,45.498 L110.381,45.81 C107.456,49.203 103.712,51.894 100.865,51.894 C98.369,51.894 96.887,50.334 98.759,47.058 L99.149,46.356 C101.762,47.448 106.676,46.941 109.718,41.676 L110.303,40.662 C112.487,36.918 110.381,34.11 107.066,34.11 C103.79,34.11 101.177,35.826 99.461,38.79 L95.5310137,45.53227 L95.288,45.81 C90.218,52.05 86.708,53.337 87.254,49.671 L87.917,45.303 L97.355,34.5 L94.352,34.5 L88.541,41.169 L88.931,38.712 C89.438,35.514 88.97,34.11 87.176,34.11 C85.655,34.11 84.29,35.826 83.432,37.152 C81.677,39.492 78.986,42.963 76.841,45.498 L76.568,45.81 C73.643,49.203 70.796,51.894 69.002,51.894 C68.105,51.894 67.598,51.27 68.534,49.671 L77.231,34.5 L73.175,34.5 L65.024,48.618 C63.308,51.621 64.517,54.39 67.793,54.39 C71.147,54.39 75.008,50.802 78.362,46.902 C80.624,44.328 83.705,40.194 85.187,38.244 L84.29,44.679 L75.905,53.961 L78.635,53.961 L83.744,48.462 L83.744,48.618 C83.276,52.05 83.939,54.39 87.215,54.39 C89.4575473,54.39 91.798364,52.5818419 94.1676896,50.1375047 C94.4085789,52.6109008 96.4479774,54.39 99.656,54.39 C102.58708,54.39 105.502339,52.9344924 108.099484,50.8698992 C107.913084,52.8744867 109.205392,54.39 111.629,54.39 C114.983,54.39 118.844,50.802 122.198,46.902 C124.499,44.25 126.527,41.403 127.97,39.492 C126.371,43.704 127.229,51.27 123.368,51.27 C122.003,51.27 121.457,49.788 121.457,49.788 L118.922,51.114 C118.922,51.114 119.663,54.39 123.368,54.39 C123.758,54.39 124.109,54.351 124.499,54.312 C124.538,54.312 124.577,54.273 124.616,54.273 C128.75,53.727 132.845,50.451 135.887,46.902 C135.653,46.278 134.951,45.654 134.366,45.498 L134.093,45.81 C132.611,47.565 130.817,49.125 129.218,50.217 C130.505,46.356 130.232,40.428 132.728,35.241 L129.686,33.603 C128.009,35.904 124.343,41.208 120.677,45.498 Z M75.398,30.093 C75.398,31.419 76.412,32.433 77.738,32.433 C79.064,32.433 80.117,31.419 80.117,30.093 C80.117,28.767 79.064,27.714 77.738,27.714 C76.412,27.714 75.398,28.767 75.398,30.093 Z M102.932,39.804 C105.272,35.787 109.406,36.45 106.988,40.662 L106.403,41.676 C104.453,44.991 101.84,44.913 100.319,44.367 L102.932,39.804 Z" id="Pixels-Copy-3" fill="#FFFFFF"></path>
            </g>
        </g>
    </g>
</svg>